<?xml version="1.0" encoding="utf-8"?>
<!-- Generator: Adobe Illustrator 24.0.1, SVG Export Plug-In . SVG Version: 6.00 Build 0)  -->
<svg version="1.1" id="Ebene_1" xmlns="http://www.w3.org/2000/svg" xmlns:xlink="http://www.w3.org/1999/xlink" x="0px" y="0px"
	 viewBox="0 0 223.2 223.2" style="enable-background:new 0 0 223.2 223.2;" xml:space="preserve">
<style type="text/css">
	.st0{fill:#FFFFFF;}
	.st1{fill:#008B93;}
</style>
<g>
	<circle class="st0" cx="111.6" cy="111.6" r="111.6"/>
	<g>
		<path class="st1" d="M144.3,136.1c5,7.2,12.3,13.4,19.3,20.1c2.8,2.7,21.1,17.6,23.9,24.9c0.3,0.7,0.4,1.4,0.4,2.2
			c1.7-3,3-5.5,3.8-7.1c4.4-8.6,13.6-29.1,16.4-36.1c1.8-4.4-9.7-9.4-9.7-9.4c3.5-1.8,5.6-4.6,6.6-8.8c3.7-14.1-7.8-27.9-26.6-32.3
			c-3.1-0.7-6.2-1.1-9.4-1.2c-4.7,0.6-11.1,3.1-14.4,10.2c-3,6.2-9.1,6.9-9.1,6.9c-1.9-0.1-3.3,0.4-4.2,1.4c-0.9,1-1.2,2.5-1,4.5
			c-0.8,0.3-1.4,0.7-2,1.2c0,0,0,0.1,0,0.1c-0.5,0.6-0.9,1.2-1.1,2c-0.2,0.8-0.2,1.6,0.1,2.4c-1.2,0.2-2,0.9-2.4,1.8
			c-0.4,0.9-0.3,2,0.1,2.7c-0.6,2.1-1.2,5.5,0.6,8.7c0.6,1.1,1.4,2,2.4,2.9c1.2,1,2.6,1.8,4.3,2.5
			C143.1,135.7,143.7,135.9,144.3,136.1L144.3,136.1C144.3,136.1,144.3,136.1,144.3,136.1z"/>
		<path class="st1" d="M88.4,2.4c14.5,0.8,29.6,4.2,42.3,10c6.1,2.8,12.3,6.3,18.1,10.4c0,0,0.4,0.3,0.8,0.6
			c17.5,12.7,30.4,31,20.5,50.4c-1.1,2.2-2.4,4.1-3.9,6c7.5-0.4,15.2,0.2,22.4,1.9c14.8,3.4,30,11.8,34.2,23.5c0,0,0,0.1,0.1,0.1
			C219.7,46.6,171.1,0,111.6,0C103.7,0,96.9,0.6,88.4,2.4z"/>
		<path class="st1" d="M0,111.6c0,30.3,12.1,57.8,31.9,78.1c0,0-1.4-7.6-1.7-11.3c-0.3-2.9-0.5-5.8-0.5-8.6c0-2.4,0.1-4.9,0.3-7.3h0
			c0-0.8,0.1-1.5,0.1-2.3c0-2.6,0.4-5.6,1-8.9c2-14.5,6.1-28.7,10.6-41.9c4.1-12,8.6-20.9,8.6-20.9c0,0,0-0.1,0-0.1l3.1-8.7
			c3.7-10.4,8.2-23,14.6-41.8c5-2.4,13.7-4.9,17.6-4.2c2.5,0.4,3.9,2.3,3.4,5c-0.6,2.9-4.3,11.4-11.1,29.1
			c-6.4,16.5-17,44.5-22.4,65.1c-2.6,11-4.6,24.2-4.6,35.4c0,2.6,0.1,5.5,0.4,8.4c1.8,15.7,9.2,34.2,27.6,34.2
			c10.5,0,22.1-7.6,24.3-14.7c2.1-7.1,2.8-20.6,3.8-33.7c0,0,0,0,0,0.1c0.2-3.7,0.5-7.7,0.9-12c1.8-21.6-1-35-3.7-44.1
			c-2.8-9.1-9-16.6-9-16.6s0,0,0,0l0,0c1.7-2.3,3.4-3.5,5.2-3.6c2.3-0.2,4.4,1.4,5.7,2.7c0,0,0,0,0,0c0,0,0,0,0,0c0,0,0,0,0,0
			c0.9,0.9,1.8,1.6,2.8,2c1,0.5,2,0.7,3,0.7c0.2,0,0.5,0,0.7,0c1.3-0.2,3.2-0.9,4.7-3.5c2-3.5,3.2-4.3,3.8-4.4c0.2,0,0.4,0,0.8,0.3
			c0.5,0.4,1.1,0.8,1.7,1.1c0.2,0.1,0.3,0.1,0.5,0.2c0.1,0,0.2,0.1,0.2,0.1c0.1,0,0.2,0,0.3,0.1c0.1,0,0.3,0,0.4,0.1c0,0,0,0,0,0
			c0.3,0,0.7,0,1-0.2c0.3-0.2,0.7-0.5,0.9-1.2c0-0.2,0.1-0.5,0-0.8c-0.1-1.3,0.2-2.1,0.3-2.2c0.7,0.4,2.4,1.3,3.5,0.6
			c0.4-0.2,0.9-0.7,0.9-1.8c0-0.6,0.3-1.6,1.1-2.3c0.8-0.8,2.1-1.2,3.5-1.1c1.4,0.1,3.1,0,4.1-1.1c1.3-1.4,1.2-3.8,0.7-7.3l-0.1-1.1
			c-0.8-5.6-1.4-10.5,1.6-12.5c3.4-2.3,5.6-5.2,6.9-8.4c-0.9-2.4-2-4.5-2.4-5.4c-4.8-8.7-13.9-16.2-26.2-21.8
			c-17.2-7.8-35.9-9.6-52.3-5.7c-17.6,4.1-32,14.7-40,30.6c-6.1,12.1-9.1,28.6,0.6,41.5l-3.2,3.2C17.5,84.4,9.7,76.7,7.9,70.5
			C1.4,85.1,0,97.1,0,111.6z"/>
		<path class="st1" d="M172,205.5c0,0,0.1-0.1,0.1-0.1c0,0,0.6-0.9,1.7-2.4c1.3-2.2,2.3-5,2.3-6.1c0-8.9-29-30.9-34.4-36.2
			c-4.1-4-8.1-7.9-11.8-12c-2.3,14-7.5,31.7-7.2,40.2c0.3,8.5,12.9,28,23.6,28.7C155.8,214.6,164.7,210.1,172,205.5z"/>
		<path class="st1" d="M111.6,223.2c4.8,0,9.4-0.4,9.4-0.4c-5.2-3.4-9.5-8-13-13c-4.1,4.7-9.9,9.8-14,12.1
			C99,222.6,105.6,223.2,111.6,223.2z"/>
	</g>
</g>
</svg>
