<?xml version="1.0" encoding="utf-8"?>
<!-- Generator: Adobe Illustrator 25.2.1, SVG Export Plug-In . SVG Version: 6.00 Build 0)  -->
<svg version="1.1" id="Ebene_1" xmlns="http://www.w3.org/2000/svg" xmlns:xlink="http://www.w3.org/1999/xlink" x="0px" y="0px"
	 viewBox="0 0 355.38 195.33" style="enable-background:new 0 0 355.38 195.33;" xml:space="preserve">
<style type="text/css">
	.st0{clip-path:url(#SVGID_2_);fill:url(#SVGID_3_);}
	.st1{clip-path:url(#SVGID_5_);fill:url(#SVGID_6_);}
	.st2{clip-path:url(#SVGID_8_);fill:url(#SVGID_9_);}
	.st3{clip-path:url(#SVGID_11_);fill:url(#SVGID_12_);}
	.st4{clip-path:url(#SVGID_14_);fill:url(#SVGID_15_);}
	.st5{clip-path:url(#SVGID_17_);fill:url(#SVGID_18_);}
	.st6{clip-path:url(#SVGID_20_);fill:url(#SVGID_21_);}
	.st7{clip-path:url(#SVGID_23_);fill:url(#SVGID_24_);}
	.st8{fill:#2F962B;}
</style>
<g>
	<g>
		<g>
			<g>
				<defs>
					<path id="SVGID_1_" d="M154.19,34.12V19.44h12.19V62.3h-10.29l-17.9-23.07l0.18,9.33V62.3h-12.25V19.44h10.29l18.13,23.42
						C154.25,37.8,154.19,35.78,154.19,34.12z"/>
				</defs>
				<clipPath id="SVGID_2_">
					<use xlink:href="#SVGID_1_"  style="overflow:visible;"/>
				</clipPath>
				
					<linearGradient id="SVGID_3_" gradientUnits="userSpaceOnUse" x1="43.05" y1="117.0962" x2="496.16" y2="117.0962" gradientTransform="matrix(1 0 0 -1 0 196.2362)">
					<stop  offset="0" style="stop-color:#30972B"/>
					<stop  offset="1" style="stop-color:#ACD994"/>
				</linearGradient>
				<rect x="43.05" y="-6.62" class="st0" width="453.11" height="171.52"/>
			</g>
		</g>
		<g>
			<g>
				<defs>
					<polygon id="SVGID_4_" points="175.08,62.3 175.08,19.44 208.55,19.44 208.55,29.6 187.03,29.6 187.03,35.73 207.3,35.73 
						207.3,45.59 187.03,45.59 187.03,52.07 209.39,52.07 209.39,62.3 					"/>
				</defs>
				<clipPath id="SVGID_5_">
					<use xlink:href="#SVGID_4_"  style="overflow:visible;"/>
				</clipPath>
				
					<linearGradient id="SVGID_6_" gradientUnits="userSpaceOnUse" x1="43.05" y1="117.0962" x2="496.16" y2="117.0962" gradientTransform="matrix(1 0 0 -1 0 196.2362)">
					<stop  offset="0" style="stop-color:#30972B"/>
					<stop  offset="1" style="stop-color:#ACD994"/>
				</linearGradient>
				<rect x="43.05" y="-6.62" class="st1" width="453.11" height="171.52"/>
			</g>
		</g>
		<g>
			<g>
				<defs>
					<path id="SVGID_7_" d="M237.29,63.37c-14.03,0-23.84-8.14-23.84-22.47c0-14.03,9.81-22.53,23.84-22.53
						c13.97,0,23.78,8.27,23.78,22.53C261.06,55.22,251.26,63.37,237.29,63.37z M237.29,28.77c-6.96,0-11.71,4.99-11.71,12.13
						c0,7.13,4.82,12.07,11.71,12.07c7.07,0,11.65-5,11.65-12.07C248.94,33.47,244.42,28.77,237.29,28.77z"/>
				</defs>
				<clipPath id="SVGID_8_">
					<use xlink:href="#SVGID_7_"  style="overflow:visible;"/>
				</clipPath>
				
					<linearGradient id="SVGID_9_" gradientUnits="userSpaceOnUse" x1="43.05" y1="117.0962" x2="496.16" y2="117.0962" gradientTransform="matrix(1 0 0 -1 0 196.2362)">
					<stop  offset="0" style="stop-color:#30972B"/>
					<stop  offset="1" style="stop-color:#ACD994"/>
				</linearGradient>
				<rect x="43.05" y="-6.62" class="st2" width="453.11" height="171.52"/>
			</g>
		</g>
	</g>
	<g>
		<g>
			<g>
				<defs>
					<polygon id="SVGID_10_" points="143.9,116.23 126.13,73.19 139.5,73.19 144.44,86.03 149.79,101.9 155.25,86.03 160.13,73.19 
						173.57,73.19 155.73,116.23 					"/>
				</defs>
				<clipPath id="SVGID_11_">
					<use xlink:href="#SVGID_10_"  style="overflow:visible;"/>
				</clipPath>
				
					<linearGradient id="SVGID_12_" gradientUnits="userSpaceOnUse" x1="43.05" y1="125.1562" x2="496.16" y2="125.1562" gradientTransform="matrix(1 0 0 -1 0 196.2362)">
					<stop  offset="0" style="stop-color:#30972B"/>
					<stop  offset="1" style="stop-color:#ACD994"/>
				</linearGradient>
				<rect x="43.05" y="-14.68" class="st3" width="453.11" height="171.52"/>
			</g>
		</g>
		<g>
			<g>
				<defs>
					<polygon id="SVGID_13_" points="177.1,116.05 177.1,73.19 210.57,73.19 210.57,83.36 189.05,83.36 189.05,89.48 209.32,89.48 
						209.32,99.35 189.05,99.35 189.05,105.83 211.4,105.83 211.4,116.05 					"/>
				</defs>
				<clipPath id="SVGID_14_">
					<use xlink:href="#SVGID_13_"  style="overflow:visible;"/>
				</clipPath>
				
					<linearGradient id="SVGID_15_" gradientUnits="userSpaceOnUse" x1="43.05" y1="125.1562" x2="496.16" y2="125.1562" gradientTransform="matrix(1 0 0 -1 0 196.2362)">
					<stop  offset="0" style="stop-color:#30972B"/>
					<stop  offset="1" style="stop-color:#ACD994"/>
				</linearGradient>
				<rect x="43.05" y="-14.68" class="st4" width="453.11" height="171.52"/>
			</g>
		</g>
		<g>
			<g>
				<defs>
					<path id="SVGID_16_" d="M244.59,116.05l-9.99-13.91h-4.22v13.91h-12.13V73.19h20.93c11,0,16.7,7.07,16.7,14.74
						c0,5.29-1.84,9.81-9.1,12.96l11.18,14.44v0.71h-13.37V116.05z M230.38,93.16h8.92c3.21,0,4.64-2.32,4.64-4.99
						s-1.54-5.29-4.75-5.29h-8.8L230.38,93.16L230.38,93.16z"/>
				</defs>
				<clipPath id="SVGID_17_">
					<use xlink:href="#SVGID_16_"  style="overflow:visible;"/>
				</clipPath>
				
					<linearGradient id="SVGID_18_" gradientUnits="userSpaceOnUse" x1="43.05" y1="125.1562" x2="496.16" y2="125.1562" gradientTransform="matrix(1 0 0 -1 0 196.2362)">
					<stop  offset="0" style="stop-color:#30972B"/>
					<stop  offset="1" style="stop-color:#ACD994"/>
				</linearGradient>
				<rect x="43.05" y="-14.68" class="st5" width="453.11" height="171.52"/>
			</g>
		</g>
		<g>
			<g>
				<defs>
					<path id="SVGID_19_" d="M304.18,94.3c0,11.77-7.01,21.76-22.41,21.76H263.4V73.19h18.37C296.93,73.19,304.18,82.58,304.18,94.3
						z M281.77,105.83c7.67,0,10.4-5.77,10.4-11.65c0-5.89-2.97-10.88-10.4-10.88h-6.36v22.53H281.77z"/>
				</defs>
				<clipPath id="SVGID_20_">
					<use xlink:href="#SVGID_19_"  style="overflow:visible;"/>
				</clipPath>
				
					<linearGradient id="SVGID_21_" gradientUnits="userSpaceOnUse" x1="43.05" y1="125.1562" x2="496.16" y2="125.1562" gradientTransform="matrix(1 0 0 -1 0 196.2362)">
					<stop  offset="0" style="stop-color:#30972B"/>
					<stop  offset="1" style="stop-color:#ACD994"/>
				</linearGradient>
				<rect x="43.05" y="-14.68" class="st6" width="453.11" height="171.52"/>
			</g>
		</g>
		<g>
			<g>
				<defs>
					<polygon id="SVGID_22_" points="310.63,116.05 310.63,73.19 344.1,73.19 344.1,83.36 322.58,83.36 322.58,89.48 342.85,89.48 
						342.85,99.35 322.58,99.35 322.58,105.83 344.93,105.83 344.93,116.05 					"/>
				</defs>
				<clipPath id="SVGID_23_">
					<use xlink:href="#SVGID_22_"  style="overflow:visible;"/>
				</clipPath>
				
					<linearGradient id="SVGID_24_" gradientUnits="userSpaceOnUse" x1="43.05" y1="125.1562" x2="496.16" y2="125.1562" gradientTransform="matrix(1 0 0 -1 0 196.2362)">
					<stop  offset="0" style="stop-color:#30972B"/>
					<stop  offset="1" style="stop-color:#ACD994"/>
				</linearGradient>
				<rect x="43.05" y="-14.68" class="st7" width="453.11" height="171.52"/>
			</g>
		</g>
	</g>
	<g>
		<path class="st8" d="M74.09,191.86C-36.71,126.68,7.75,23.56,106.67,7.04c-19.32,39.34,5.59,116.62-69.36,115.92
			c0,0-1.63-32.59,47.95-93.57C25.9,72.21,3.32,134.13,74.09,191.86z"/>
		<path class="st8" d="M61.29,135.29c44.46-54.7,103.82,20.02,129.42,28.16c-26.54,16.76-51.91,28.64-81.24,28.4
			s-46.32-18.39-54.93-44.46c7.68,5.59,37.71,26.54,106.38,17.92C147.87,159.27,114.36,168.81,61.29,135.29z"/>
	</g>
</g>
</svg>
